<svg id="Layer_1" data-name="Layer 1" xmlns="http://www.w3.org/2000/svg" viewBox="0 0 500 500"><defs><style>.cls-1,.cls-2{fill:none;stroke-miterlimit:10;stroke-width:8.45px;}.cls-1{stroke:#000;}.cls-2{stroke:#0bcb64;}</style></defs><path class="cls-1" d="M276.48,273.39h75.43a47.58,47.58,0,0,0,0-95.15h-.06c0-.4.06-.78.06-1.18a40.66,40.66,0,0,0-52.72-38.77,53.94,53.94,0,0,0-102.8,22.88c0,1.44.11,2.86.22,4.28h-.22a54,54,0,0,0-38.56,91.73"/><polygon class="cls-2" points="283.61 186.23 100.52 289.51 269.53 358.37 283.61 186.23"/><polyline class="cls-2" points="283.61 186.23 168.62 317.25 168.62 392.79 216.99 336.96"/></svg>