<svg id="Layer_1" data-name="Layer 1" xmlns="http://www.w3.org/2000/svg" viewBox="0 0 500 500"><defs><style>.cls-1,.cls-2,.cls-3{fill:none;stroke-miterlimit:10;stroke-width:8.45px;}.cls-1,.cls-2{stroke:#0bcb64;}.cls-2{stroke-dasharray:59.31 49.42;}.cls-3{stroke:#000;}</style></defs><line class="cls-1" x1="250" y1="87.97" x2="250" y2="116.55"/><line class="cls-2" x1="250" y1="165.98" x2="250" y2="358.73"/><line class="cls-1" x1="250" y1="383.45" x2="250" y2="412.03"/><path class="cls-3" d="M226.91,182.15a93.7,93.7,0,0,0,0,182.4"/><path class="cls-3" d="M226.91,389.44a118.08,118.08,0,0,1,0-232.18l-43.22-46.7,43.22-18.9"/><path class="cls-3" d="M273.09,182.15a93.7,93.7,0,0,1,0,182.4"/><path class="cls-3" d="M273.09,389.44a118.08,118.08,0,0,0,0-232.18l43.22-46.7-43.22-18.9"/><line class="cls-1" x1="250" y1="87.97" x2="250" y2="116.55"/><line class="cls-2" x1="250" y1="165.98" x2="250" y2="358.73"/><line class="cls-1" x1="250" y1="383.45" x2="250" y2="412.03"/><path class="cls-3" d="M226.91,182.15a93.7,93.7,0,0,0,0,182.4"/><path class="cls-3" d="M226.91,389.44a118.08,118.08,0,0,1,0-232.18l-43.22-46.7,43.22-18.9"/><path class="cls-3" d="M273.09,182.15a93.7,93.7,0,0,1,0,182.4"/><path class="cls-3" d="M273.09,389.44a118.08,118.08,0,0,0,0-232.18l43.22-46.7-43.22-18.9"/></svg>