<svg id="Layer_1" data-name="Layer 1" xmlns="http://www.w3.org/2000/svg" viewBox="0 0 500 500"><defs><style>.cls-1,.cls-2{fill:none;stroke-miterlimit:10;stroke-width:8.45px;}.cls-1{stroke:#0bcb64;}.cls-2{stroke:#000;}</style></defs><path class="cls-1" d="M343.93,314c55.65-53.79,80.48-101.58,74.33-147.23-6.46-48-51.57-76.44-97.12-68.11-37.62,6.87-67.36,42.93-67.36,42.93s-29.73-36.06-67.35-42.93c-45.55-8.33-90.66,20.15-97.12,68.11-5.56,41.23,13.28,85.09,58.92,131.91"/><path class="cls-2" d="M80.82,399.34c12.59-54,77.79-92.44,77.79-137.32"/><path class="cls-2" d="M255.67,296.31V275.85c12.92-29.43,52.87-38.77,57.45-55.87,4.7-17.53.86-34.15-7.72-34.15s-32.58.86-32.58.86c-59.16-52.3-105.4.42-116.54,33.16-10.22,30-16.35,32.85,7.65,44.86s30.87,5.14,30.87-9.43-6-28.27,0-40.27"/><path class="cls-1" d="M253.78,402.81S307.27,349.4,343.93,314"/><path class="cls-2" d="M135.6,402.81c23-38.6,45.92-52,45.92-52,2.73-37.66,24-58.82,32.45-67.74,14.17-15,24.56-10.59,25.38,10.16,0,0,32.26,2.6,32.76,35.27,1.8.57,10.18,3.62,10.18,10.23,0,24.9-28.51,24.22-28.51,24.22v39.86"/></svg>