<svg id="Layer_1" data-name="Layer 1" xmlns="http://www.w3.org/2000/svg" viewBox="0 0 500 253.02"><defs><style>.cls-1{fill:#004743;}.cls-2{fill:#0bcb64;}</style></defs><polygon class="cls-1" points="80.94 118.81 80.94 169.05 115.32 169.05 115.32 160.46 89.57 160.46 89.57 117.88 80.94 118.81"/><path class="cls-1" d="M239,124.4a22.29,22.29,0,1,0,15.78,6.54A21.6,21.6,0,0,0,239,124.4Zm9.71,32a13.81,13.81,0,1,1,4-9.72A13.39,13.39,0,0,1,248.75,156.44Z"/><path class="cls-1" d="M288.29,169.07a22.33,22.33,0,0,0,0-44.65A22.31,22.31,0,0,0,266,146.75v28.72l8.58.93v-12l.87.63A21.48,21.48,0,0,0,288.29,169.07Zm-9.74-32a13.81,13.81,0,1,1-4,9.72A13.39,13.39,0,0,1,278.55,137Z"/><path class="cls-1" d="M337,168.5v-8.59a13.67,13.67,0,0,1-13.16-12.79V132.64h9.83V124h-9.86v-6.76l-8.6.93v28A22.38,22.38,0,0,0,337,168.5Z"/><path class="cls-1" d="M203.14,150.74l-.08.23a14.33,14.33,0,0,1-3.4,5.48,13.74,13.74,0,1,1,0-19.49,14.6,14.6,0,0,1,3.47,5.74H212l-.27-1a23.1,23.1,0,0,0-6-10.74,22.35,22.35,0,1,0,0,31.57,22.9,22.9,0,0,0,5.89-10.1l.47-1.67Z"/><path class="cls-1" d="M153.87,151a14.18,14.18,0,0,1-3.39,5.48A13.75,13.75,0,0,1,127,146.72c0-.42,0-1.23,0-1.23a13.74,13.74,0,0,1,23.41-8.42.81.81,0,0,1,.09.1H136.21l-3.09,7.5H163a22.3,22.3,0,0,0-22.21-20.18A21.75,21.75,0,0,0,124.94,131a21.5,21.5,0,0,0-6.47,14.49h0c0,.41-.06.82-.06,1.23a22.32,22.32,0,0,0,38.1,15.79,22.79,22.79,0,0,0,5.88-10.1l.48-1.67H154Z"/><path class="cls-2" d="M400.83,117.15l-12.17,0h0a3.58,3.58,0,0,0-3.11,5.37l10.83,18.76,3.16-5.47-7.62-13.19h.24l26.27,0a42.2,42.2,0,0,0,.64-5.48l-16.62,0Z"/><path class="cls-2" d="M368.7,112.73h0a3.52,3.52,0,0,0,3.23-5l-.09-.21L360.89,88.63l-3.15,5.47,7.59,13.16H342.15v0h-3.34a42,42,0,0,0-.7,5.49H368.7Z"/><path class="cls-2" d="M392.43,95.39c-2.42,4.16-4.85,8.34-6.92,11.92a3.57,3.57,0,0,0,3.09,5.37h21.66l-3.15-5.47H391.87l13.27-22.94a39.79,39.79,0,0,0-4.43-3.3Z"/><path class="cls-2" d="M371.73,118.87a3.48,3.48,0,0,0-2.67-1.75l-.23,0H347l3.16,5.46h15.2l-11.6,20.08h0L352,145.53a39.06,39.06,0,0,0,4.41,3.35l15.29-26.49A3.47,3.47,0,0,0,371.73,118.87Z"/><path class="cls-2" d="M378.44,99.39,365.33,76.63a40.53,40.53,0,0,0-5.07,2.18l8.62,14.89,6.57,11.44a3.59,3.59,0,0,0,6.21,0L392.49,86.4h-6.31l-7.62,13.19Z"/><path class="cls-2" d="M391.82,153.25a40.47,40.47,0,0,0,5.1-2.14l-15.29-26.49a3.52,3.52,0,0,0-5.9-.32l-.14.18-10.93,19H371l7.61-13.16,11.59,20.08h0Z"/></svg>