<svg id="Layer_1" data-name="Layer 1" xmlns="http://www.w3.org/2000/svg" viewBox="0 0 500 500"><defs><style>.cls-1,.cls-2{fill:none;stroke-miterlimit:10;stroke-width:8.45px;}.cls-1{stroke:#0bcb64;}.cls-2{stroke:#000;}</style></defs><path class="cls-1" d="M330.84,255.06a80.84,80.84,0,1,0-161.68,0c0,33.77,17.89,62.67,47.29,74.77v35.59a33.55,33.55,0,1,0,67.1,0V327.19C309.9,313.87,330.84,286.61,330.84,255.06Z"/><line class="cls-1" x1="280.72" y1="343.99" x2="213.62" y2="343.99"/><line class="cls-2" x1="123.13" y1="144.98" x2="153.45" y2="172.27"/><line class="cls-2" x1="129.19" y1="262.49" x2="86.88" y2="262.49"/><line class="cls-2" x1="138.29" y1="369.39" x2="164.07" y2="343.61"/><line class="cls-2" x1="376.87" y1="144.98" x2="346.55" y2="172.27"/><line class="cls-2" x1="370.81" y1="262.49" x2="413.12" y2="262.49"/><line class="cls-2" x1="361.71" y1="369.39" x2="335.93" y2="343.61"/><line class="cls-2" x1="250" y1="139.14" x2="250" y2="101.03"/></svg>