<svg id="Layer_1" data-name="Layer 1" xmlns="http://www.w3.org/2000/svg" viewBox="0 0 500 500"><defs><style>.cls-1{opacity:0.5;}.cls-2{fill:#c9ff00;}.cls-3{fill:#004743;}</style></defs><g class="cls-1"><path class="cls-2" d="M148,377V355.86q33.12-25.59,57.68-46.08T247.2,272.9a290.56,290.56,0,0,0,27.28-29.68q10.32-13.28,15-24.48a56.33,56.33,0,0,0,4.64-21.6,50.63,50.63,0,0,0-6.72-25.84,51.76,51.76,0,0,0-18.16-18.56,50.71,50.71,0,0,0-51.28,0,61.08,61.08,0,0,0-19.76,19.84q-8.24,12.88-11.92,30.8L150.4,187.86a110.52,110.52,0,0,1,12.32-32.72,95.14,95.14,0,0,1,21-25.2,91.41,91.41,0,0,1,28.16-16.24A99,99,0,0,1,245.76,108q26.88,0,48.08,11.44a86.34,86.34,0,0,1,33.36,31.36q12.15,19.92,12.16,45.2a89.06,89.06,0,0,1-3.6,25.12,101.05,101.05,0,0,1-11.68,25.2,183,183,0,0,1-21.28,27,398,398,0,0,1-32.16,30.4q-19,16.25-44.56,35.6H344.16V377Z"/></g><path class="cls-3" d="M116.89,191.74a48.83,48.83,0,0,1-15.23,22.73,23.62,23.62,0,0,0-3.48-3.08c6.61-4.59,11.71-12,14.4-20.72Zm24.41,18.09s-.05,1.45-.11,2c-.78,17.19-1.57,23.63-3.47,25.76-1.18,1.4-2.35,1.79-4.37,2a79.64,79.64,0,0,1-8.79-.12,9.22,9.22,0,0,0-1.35-4.19c3.64.33,7.06.39,8.41.39,1.17,0,1.79-.11,2.35-.73,1.45-1.4,2.24-7,2.91-21.11H122.43C121,225,117.34,235,103.11,240.23a12.72,12.72,0,0,0-2.69-3.64c13.16-4.42,16.24-13.27,17.59-22.73H106.58v-4Zm-7.11-20.05c2.8,8.79,8.79,16.8,15.9,20.83a24.84,24.84,0,0,0-3,3.75c-6.95-4.48-12.71-12.32-15.91-20.66h-9.91v-3.92Z"/><path class="cls-3" d="M178.54,221.19c-.95-2-3.13-5.48-5-8.45V239.9h-4V213.47c-2.07,6.27-4.82,12.32-7.67,16.07a24.31,24.31,0,0,0-2.19-3.75c3.7-4.65,7.56-13.39,9.41-21.06h-7.89v-4h8.34v-12h4v12h8.18v4H173.5v2.86c2,2.35,6.61,8.62,7.73,10.3Zm32.37-9.4h-8.12V240H198.7V211.79H188.51v.28c0,8.34-.78,20-6,27.77a13.67,13.67,0,0,0-3.41-2.13c5-7.44,5.54-17.86,5.54-25.64V194.93c7.06-1.29,15.06-3.42,19.6-5.49l3.53,3.25a104.63,104.63,0,0,1-19.21,5.15v10h22.4Z"/><path class="cls-3" d="M272.06,233.29v4.2H222.39v-4.2h16.69V204H223.85v-4h12.82a38.47,38.47,0,0,0-5.38-9.63l3.65-1.46a36.75,36.75,0,0,1,5.6,9.52L237,200h19l-2.29-.84a66.79,66.79,0,0,0,5.71-10.3l4.42,1.34a99.24,99.24,0,0,1-6.1,9.8h12.88v4H255v29.29Zm-41.83-23.91a64.85,64.85,0,0,1,5.6,17.64l-4,1a62.28,62.28,0,0,0-5.32-17.64Zm12.94,23.91H251V204h-7.78ZM257.73,227a117.92,117.92,0,0,0,6.16-18.15l4.36,1.07a172.06,172.06,0,0,1-6.77,18.2Z"/><path class="cls-3" d="M300.17,217c-2,.73-4.08,1.35-6.16,2.08v15.68c0,2.29-.5,3.36-1.9,4s-3.42.84-6.94.78a16.53,16.53,0,0,0-1.24-3.86c2.41.05,4.65.05,5.27.05s.95-.22.95-1.06V220.3c-2.3.78-4.48,1.45-6.49,2.07l-1-4c2.07-.51,4.64-1.29,7.5-2.19V203.89h-6.89V200h6.89V188.88H294V200h6.16v3.86H294v11l5.66-1.73Zm18.65,18.09a38.16,38.16,0,0,0,5.27.34c1.34,0,8.9,0,10.8-.06a12.31,12.31,0,0,0-1.23,3.7h-9.74c-8.07,0-13.95-1.51-17.58-9.35A25,25,0,0,1,299.67,240a24.1,24.1,0,0,0-3.13-2.52c5-3.92,7.44-10.19,8.34-18.48l3.81.45a58.86,58.86,0,0,1-1.07,5.94c1.57,4.76,4.09,7.33,7.28,8.68v-17.7H301.24v-3.53h32v3.53H318.82v6.55h11.6v3.42h-11.6Zm11.26-26.26H303.76V190.67h26.32Zm-4-15H307.57v4.42H326.1Zm0,7.34H307.57v4.48H326.1Z"/><path class="cls-3" d="M361.5,190.17a93,93,0,0,1-5.72,12v37.69H351.7V208.42a52,52,0,0,1-5.55,6.78,34.85,34.85,0,0,0-2.35-4.09c5.49-5.32,10.64-13.72,13.78-22.17Zm12,36.68a52.38,52.38,0,0,1-10.7,12.94,18.18,18.18,0,0,0-3.3-2.58,39.11,39.11,0,0,0,10-11.59ZM396,218.39v4.09H359.82v-4.09h8.56V204.73h-7.22v-4h7.22V189.44h4V200.7h10.92V189.39h4V200.7h7.95v4h-7.95v13.66Zm-23.57,0h10.92V204.73H372.42Zm13,7.4a66,66,0,0,1,10,11.87L391.85,240a62.65,62.65,0,0,0-9.69-12.38Z"/><path class="cls-3" d="M86.54,301.28c-1.12-1.73-3.64-5-5.83-7.67V315.9h-4.2V294.23a57.57,57.57,0,0,1-6.94,6.83,13.41,13.41,0,0,0-2.24-3.92,54.85,54.85,0,0,0,15.06-18.65H68.45v-3.81h16l.79-.17,2.41,1.68a62.76,62.76,0,0,1-7,12.55v.11c.56.56,1.23,1.23,1.91,2a53.46,53.46,0,0,0,4.53-5.49L90,287.73c-1.8,1.79-3.76,3.69-5.43,5.21,1.9,2,3.86,4.14,4.59,5Zm-7.45-26.93a54.31,54.31,0,0,0-4.76-7.79l3.19-1.79a44,44,0,0,1,4.87,7.45Zm37.57-2.52c-.78,28.72-1.51,38.41-3.69,41.21a5.4,5.4,0,0,1-4.37,2.41,49.27,49.27,0,0,1-8.12-.06,8.42,8.42,0,0,0-1.29-4c3.47.28,6.5.33,7.78.33a2.56,2.56,0,0,0,2.3-1c1.85-2.08,2.58-11.54,3.31-37.19H101.82c-.89,20-3.47,33.55-14,42.45a25.45,25.45,0,0,0-3.24-3.25c10.13-7.73,12.43-20.83,13-39.2H88.5v-4h28.16Z"/><path class="cls-3" d="M157.21,285.77v17.47a34.8,34.8,0,0,0,13.6-14.56l3.92,1.79c-7.33,14.45-21.39,21.9-42.72,25.15a12.6,12.6,0,0,0-2.13-3.87c11-1.51,20.05-4.2,27.05-8.34h-4V285.77H130.33v-4h8.4V269.14h4.14v12.65h10.42V264.88h4.31v5.88H174v3.92H157.6v7.11h21.45v4Zm-10,3.75a53.52,53.52,0,0,1-12.09,13.83,20.66,20.66,0,0,0-3.14-3.13,40.57,40.57,0,0,0,11.26-12Z"/><path class="cls-3" d="M201.28,289.52a52.74,52.74,0,0,0-10.36-6l2.24-3a50.39,50.39,0,0,1,10.42,5.6Zm-8.46,22.85a166.59,166.59,0,0,0,10.59-17.92l3,2.74a201,201,0,0,1-10.14,18Zm3.36-47a54.81,54.81,0,0,1,10.64,5.82l-2.4,3.47a52.9,52.9,0,0,0-10.48-6.27Zm41,50.45a50.83,50.83,0,0,0-2.57-5.54c-20.78,2.57-23.13,3-24.64,3.69a31.61,31.61,0,0,0-1.4-4.14c1.06-.28,2.18-1.62,3.58-3.64a93.13,93.13,0,0,0,7.73-13.89H207.44v-4h14.39v-10H209.9v-4h11.93v-9.63H226v9.63h12.37v4H226v10H240.7v4H224.86A112.72,112.72,0,0,1,215,308.9l17.7-2a78.62,78.62,0,0,0-5-7.23l3.31-1.56c4,4.87,8.17,11.53,9.91,15.84Z"/><path class="cls-3" d="M268.76,278.6a50.38,50.38,0,0,1-4.48,6.83v30.41h-3.92v-25.7A66.2,66.2,0,0,1,254,296.3a35.6,35.6,0,0,0-2.18-4,52.8,52.8,0,0,0,13.38-15.12Zm-.45-12.1a55.26,55.26,0,0,1-13.44,13.33,22.37,22.37,0,0,0-2.18-3.41c4.36-2.86,9.29-7.45,11.65-11.43Zm18.82,24.42v4.37h13.21v3.53H287.13v4.76H303v3.69h-15.9v8.63H283v-8.63H268v-3.69H283v-4.76h-12.6v-3.53H283v-4.37H271.17v-3.53H283v-4.76H268.81V279H283v-4.76H271.45v-3.52H283v-5.88h4.09v5.88H299.5V279h4.09v3.64H299.5v8.29Zm0-11.93h8.34v-4.76h-8.34Zm0,8.4h8.34v-4.76h-8.34Z"/><path class="cls-3" d="M330.53,280.17h-16v-3.36h16Zm4.42,28.9a76.26,76.26,0,0,1-17.08,6.83,27.59,27.59,0,0,0-3.08-3.14c5.71-1.17,12.43-3.19,16.41-5.37Zm-5.82-37.69H315.74v-3.25h13.39Zm-7.28,13.16h36.23V307H321.85Zm4,6.61h28.06v-3.81H325.88Zm0,6.49h28.06v-3.81H325.88Zm0,6.61h28.06v-3.92H325.88Zm13.44-32.42a27.69,27.69,0,0,1-4.2,5.59A18.35,18.35,0,0,0,332,275.3a23.82,23.82,0,0,0,6.44-10.64l3.76.84c-.34,1.06-.79,2.07-1.18,3.08h18.76l.67-.17,2.8.95a52.36,52.36,0,0,1-4.7,8.06l-3.31-1.17a32.86,32.86,0,0,0,2.64-4.42H349v.72a10.51,10.51,0,0,1-.17,1.85c3,3.36,9.08,5.55,16.41,6.16a15.51,15.51,0,0,0-2.35,3.31c-6.38-.9-11.76-3.14-15.23-6.56-1.85,2.75-6.27,5.32-16.13,6.84a13.43,13.43,0,0,0-2.24-3.08c14.5-2,15.85-5.77,15.85-8.68v-.56Zm8.4,35.5a154.86,154.86,0,0,1,16.46,6.05l-3.64,2.41a132.93,132.93,0,0,0-15.68-6.22Z"/><path class="cls-3" d="M396.16,277.71h-20.1v-3.42h20.1Zm-2.07,34.83H381.54v2.63h-3.3V296.35h15.85Zm-15.8-27.61v-3.3H394v3.3Zm0,4h15.85v3.3H378.29Zm3.25,10.92v9.24h9.13v-9.24Zm4.37-26.16a56.34,56.34,0,0,0-3.92-7.44l3-1.68a62.25,62.25,0,0,1,4.09,7.22ZM421.08,268c-.34,22.63-.45,42.06,2.69,42.84.33.11.73-3.47,1-7.5a18.17,18.17,0,0,0,2.41,3c-.62,7.84-2.41,9.63-5,8.57-5.48-1.68-5.32-20-5.26-42.95h-9.3v16.52H415v3.86h-7.39v23.52h-3.92V292.32H396.1v-3.86h7.56V271.94h-6.94v-4Z"/></svg>