<svg id="Layer_1" data-name="Layer 1" xmlns="http://www.w3.org/2000/svg" viewBox="0 0 500 500"><defs><style>.cls-1,.cls-2{fill:none;stroke-miterlimit:10;stroke-width:8.57px;}.cls-1{stroke:#ebe2dc;}.cls-2{stroke:#0bcb64;}</style></defs><polyline class="cls-1" points="327.16 277.44 327.16 371.67 135.02 371.67 135.02 151.72 180.53 108.74 180.53 151.72 154.61 151.72"/><polyline class="cls-1" points="205.81 108.74 327.16 108.74 327.16 153.27"/><polyline class="cls-1" points="115 153.27 115 391.26 298.09 391.26"/><path class="cls-2" d="M357.15,248l-70.51,70.51c-18.09,18.1-45.45,20.07-62.81,2.71s-16.77-46.1,1.33-64.19L328.93,153.27c13.2-13.2,34.18-13.63,46.85-1s12.23,33.65-1,46.85L277,296.93c-7.13,7.13-18.45,7.36-25.29.52s-6.6-18.15.53-25.28L353.08,171.36"/></svg>