<svg id="Layer_1" data-name="Layer 1" xmlns="http://www.w3.org/2000/svg" viewBox="0 0 500 500"><defs><style>.cls-1{opacity:0.5;}.cls-2{fill:#c9ff00;}.cls-3{fill:#004743;}</style></defs><g class="cls-1"><path class="cls-2" d="M275.12,377V327.7h-132V313.46L273,113h41.44V290.9H345.2v36.8H314.48V377ZM199.44,290.9h75.68V169.62Z"/></g><path class="cls-3" d="M138.05,205.68a50.78,50.78,0,0,0-8.84-4.26l2.12-2.85a46,46,0,0,1,8.85,3.92ZM179.89,229H156.76v11h-4.2V229H129.93v-3.8h22.63v-4h4.2v4h23.13Zm-49.12-9.91a137.48,137.48,0,0,0,10.92-11.42l2.24,2.74c-3.13,3.92-6.88,8.29-10.24,11.87Zm11.54-22.57a52.38,52.38,0,0,0-8.9-4.59l2.07-2.85a43.28,43.28,0,0,1,9,4.25Zm4.59,5.77a37.92,37.92,0,0,1-3.25,3.31,26.66,26.66,0,0,0-3.36-2.64,39.74,39.74,0,0,0,11-14.5l3.92,1.18c-.84,1.73-1.8,3.47-2.8,5.15h9.07a46.31,46.31,0,0,0-2.24-4.65l4-1.12a44.67,44.67,0,0,1,2.86,5.77h11.31v3.25H165v4.14h10.58V205H165v4.14h10.75V212H165v4.31h13.27v3.42H150.93v2.41h-4Zm14.17-4.25H150.93v4.14h10.14Zm0,6.94H150.93v4.14h10.14Zm0,7H150.93v4.31h10.14Z"/><path class="cls-3" d="M205.42,189.89c-1.23,3.81-2.69,7.78-4.31,11.48v38.47h-4V209.21a59.31,59.31,0,0,1-4.43,6.55,31.5,31.5,0,0,0-2.24-4.26c4.59-5.59,8.68-14.11,11.2-22.73Zm11.87,17.75a26.42,26.42,0,0,1-3.24,4.37h24.52V235.7c0,1.85-.33,2.74-1.62,3.41s-3.08.62-5.66.62a14.43,14.43,0,0,0-1.17-3.36c1.68,0,3.25,0,3.8,0s.68-.17.68-.73V231.5h-8.74v7.11h-3.81V231.5h-9.63a20.62,20.62,0,0,1-3.69,8.62,19.88,19.88,0,0,0-3.31-2.52c3.36-4.37,3.7-10.25,3.7-14.89v-6a51,51,0,0,1-4.82,3.42,24.53,24.53,0,0,0-2.46-3.3,33.8,33.8,0,0,0,11-9.19h-8.12v-3.86h10v-5.43h-8.45v-3.81h8.45v-5.49h4v5.49h9.35v-5.49h4v5.49h7.56v3.81h-7.56v5.43h9v3.86Zm4.76,20.67v-4.88h-8.9c0,1.52-.11,3.2-.28,4.88Zm-8.9-8.07h8.9v-4.7h-8.9Zm5.6-16.46h9.35v-5.43h-9.35Zm15.85,11.76h-8.74v4.7h8.74Zm0,12.77v-4.88h-8.74v4.88Z"/><path class="cls-3" d="M292.73,218.9A31.35,31.35,0,0,1,285.11,230a157.93,157.93,0,0,1,16.41,6.72L298.27,240a163.86,163.86,0,0,0-16.86-7.22c-5.88,3.75-13.72,6-24.24,7.16a14.18,14.18,0,0,0-1.85-3.64c9-.89,15.9-2.52,21.22-5.2-4.93-1.74-10.08-3.31-15.4-4.82,1.68-2,3.64-4.65,5.49-7.39H253.25v-3.81H269a74.92,74.92,0,0,0,3.64-6.89l4.2,1a67.14,67.14,0,0,1-3.14,5.94h15.91c.39-1.18.67-2.35,1-3.64l4.09,1c-.22.95-.5,1.79-.73,2.69h8.57v3.81ZM298.49,193c-10.81,2.29-28.05,3.69-42.22,4.14a13.39,13.39,0,0,0-.95-3.53c14.11-.61,31.41-2,41.1-4.14Zm-35.33,17.69a40.3,40.3,0,0,0-5.55-10.58l3.59-1.4A46,46,0,0,1,267,209.15Zm8.17,8.18c-1.23,2-2.57,3.86-3.81,5.49,4.43,1.28,8.91,2.63,13.11,4.08a24.4,24.4,0,0,0,7.5-9.57Zm5.83-10.14a39.37,39.37,0,0,0-3.59-10.41l3.7-1.07a36.28,36.28,0,0,1,3.92,10.36Zm9,.51a78.46,78.46,0,0,0,7.9-13.16l4.09,1.84A131.15,131.15,0,0,1,289.7,211Z"/><path class="cls-3" d="M363.29,197.34v11.48h-4v-7.9H320.39v7.9h-4V197.34h8.9a47.76,47.76,0,0,0-4.26-6.33l3.59-1.51a40.12,40.12,0,0,1,4.93,6.89l-2.08,1h9.92v-8.57h4.14v8.57H351l-1.57-.62a48.61,48.61,0,0,0,5-7.45l4.2,1.46a73.84,73.84,0,0,1-5.09,6.61Zm-43.07,22.57h39.65v20h-4.09v-1.46H324.25V240h-4Zm4,3.19v4.48h13.44V223.1Zm13.44,12.09V230.6H324.25v4.59ZM354.38,205v11.65h-29V205Zm-4.09,3.14H329.24v5.32h21.05Zm5.49,14.95H341.67v4.48h14.11Zm0,12.09V230.6H341.67v4.59Z"/><path class="cls-3" d="M149.25,298.93v3.86H98.8v-3.86h5.65l-1.06-29.51a93.72,93.72,0,0,0,10.36-4.31l2,3.41c-2.58,1.07-5.66,2.13-8.52,3l.23,6.55H115v3.58h-7.39l.23,6.83h7.39v3.59H108l.23,6.83H140c.11-2,.28-4.26.39-6.66h-7.28v-3.53h7.39c.12-2.24.17-4.54.28-6.89h-7.39v-3.58h7.45c0-2.41.11-4.77.11-7h-8.06v-3.64h11.87c-.06,9.85-.34,23.07-.84,31.3Zm-30.57,7.28A89.65,89.65,0,0,1,102,315.79a38.93,38.93,0,0,0-2.46-3.14c5.32-2.18,12-5.88,15.56-9Zm4.31-20a28.32,28.32,0,0,1-3.41,10.47,18.75,18.75,0,0,0-2.92-1.79c1.74-2.47,2.58-5.83,3.08-9.24Zm3.86-3H118V265.16h3.64v5.21h9.24v3.53h-9.24v6h7.34V280h1.51v14.72c0,1.74-.34,2.47-1.57,3s-3.19.5-5.88.5a11.66,11.66,0,0,0-1.06-2.86,34.49,34.49,0,0,0,4.2.06c.61,0,.72-.22.72-.73Zm4.82,20.27a135.5,135.5,0,0,1,16.3,9l-2.75,3.14a126.36,126.36,0,0,0-15.85-9.24Z"/><path class="cls-3" d="M176.36,278.6a50.38,50.38,0,0,1-4.48,6.83v30.41H168v-25.7a66.2,66.2,0,0,1-6.33,6.16,35.6,35.6,0,0,0-2.18-4,52.8,52.8,0,0,0,13.38-15.12Zm-.45-12.1a55.26,55.26,0,0,1-13.44,13.33,22.37,22.37,0,0,0-2.18-3.41c4.37-2.86,9.29-7.45,11.64-11.43Zm18.82,24.42v4.37h13.21v3.53H194.73v4.76h15.9v3.69h-15.9v8.63h-4.09v-8.63H175.58v-3.69h15.06v-4.76H178v-3.53h12.6v-4.37H178.77v-3.53h11.87v-4.76H176.42V279h14.22v-4.76H179.05v-3.52h11.59v-5.88h4.09v5.88H207.1V279h4.09v3.64H207.1v8.29Zm0-11.93h8.34v-4.76h-8.34Zm0,8.4h8.34v-4.76h-8.34Z"/><path class="cls-3" d="M227.65,293.72h13.5v16.75h-13.5v3.75h-3.8V273.17h4.7a65.34,65.34,0,0,0,2.41-8.4l4.48.67c-.9,2.52-2.07,5.43-3.08,7.73h8.23v15.34H227.65Zm0-17V285h9.24v-8.24Zm0,20.56v9.57h9.75v-9.57Zm31.87-25.82v6.89h11.31v24.81c0,1.84-.34,3-1.62,3.64s-3.2.67-6.22.67a14.17,14.17,0,0,0-1.12-3.64c2,.05,3.75.05,4.31.05s.79-.22.79-.78V282.19h-7.45v33.65H255.6V282.19h-6.89v25.36H244.9V278.38h10.7v-6.89H242.83v-3.75h29.68v3.75Z"/><path class="cls-3" d="M312.1,266c-.28.33-.5.72-.78,1.06,5.26,5.1,14.95,9.63,23.69,11.65a15.81,15.81,0,0,0-2.63,3.25,64,64,0,0,1-13.72-5.66V278H299.22v-1.57a70.26,70.26,0,0,1-13.72,5.77,22.5,22.5,0,0,0-2.35-3.2c10.14-2.68,20.05-7.61,25.31-14.39Zm-22,14.78h37.4v14.11H290.1Zm3.24,16.74h31.48v18.2h-4.2V314H297.43v1.85h-4.09Zm.34-5.48H306.9v-8.35H293.68Zm6.33-7.73a22.73,22.73,0,0,1,3.36,6.33l-3.2,1.17a23.59,23.59,0,0,0-3.13-6.55Zm-2.58,16.18v3.81h23.19v-3.81ZM320.62,311v-3.81H297.43V311ZM316.42,275a46.67,46.67,0,0,1-7.34-5.6,40.4,40.4,0,0,1-7.28,5.6Zm7.33,8.68H310.42V292h13.33ZM314,290.75a47.54,47.54,0,0,0,3.08-6.72l3.53,1.12a63.63,63.63,0,0,1-3.81,6.61Z"/><path class="cls-3" d="M372.14,272.5c-.68,2.35-1.46,4.87-2.19,7h22.46V316h-4.2v-3H352.42v3h-4V279.5h17.3c.62-2.13,1.18-4.71,1.63-7H345.87v-4h49.22v4Zm-19.72,36.62h8V283.36h-8ZM376,283.36H364.18v6.16H376Zm0,9.58H364.18v6.27H376Zm-11.82,16.18H376v-6.49H364.18Zm24-25.76h-8.4v25.76h8.4Z"/></svg>