<svg id="Layer_1" data-name="Layer 1" xmlns="http://www.w3.org/2000/svg" viewBox="0 0 500 500"><defs><style>.cls-1{opacity:0.5;}.cls-2{fill:#c9ff00;}.cls-3{fill:#004743;}</style></defs><g class="cls-1"><path class="cls-2" d="M234,377V154.1H199.76V113h76.16V377Z"/></g><path class="cls-3" d="M146.06,263.51c-5.43,2.35-11.14,4.81-15.62,6.61L128.87,266c1.91-.56,4.15-1.4,6.67-2.35V244.13h-6.22v-4h6.22V227.44h4v12.72h6.27v4h-6.27v17.92l5.82-2.24ZM160.34,270a67.21,67.21,0,0,1-13,8,20.48,20.48,0,0,0-2.58-2.92c4.14-1.84,9.41-4.92,12-7.45Zm20-6.11v3.64H145.62v-3.64h5V239.15h8.23c.28-1.18.56-2.41.79-3.75H147.74V232h12.49c.34-1.79.56-3.58.73-5.1l4.42.28c-.33,1.51-.67,3.2-1.06,4.82h14.56v3.42H163.54c-.34,1.34-.68,2.57-1,3.75H175.3v24.69ZM154.3,242.06v3.58h17.19v-3.58Zm17.19,6.1H154.3v3.31h17.19Zm-17.19,9.35h17.19V254H154.3Zm0,6.33h17.19v-3.75H154.3Zm14.16,3.7a74.77,74.77,0,0,1,11.09,7.5L176.81,278a78.75,78.75,0,0,0-10.92-7.9Z"/><path class="cls-3" d="M238.46,259.81s-.05,1.18-.11,1.74c-.61,9.52-1.23,13.38-2.63,14.78a4.26,4.26,0,0,1-3.47,1.46,46.41,46.41,0,0,1-6.83-.06,8.86,8.86,0,0,0-1.18-3.64,57.58,57.58,0,0,0,6.22.23c.95.05,1.45,0,1.9-.45.78-.9,1.34-3.7,1.85-10.64H204.08a48.14,48.14,0,0,1-10.58,6.49,26.74,26.74,0,0,0-2.47-3.3c5.71-2.24,11.48-5.83,15-10.19h-6.61V240.44a87.35,87.35,0,0,0,13-3.64l2.58,2.63a80.85,80.85,0,0,1-11.88,3.19v3.75h10.87v3H203.18v3.81H229.5v-3.81H218.86v-3H229.5v-3.7H217.91V239.6h15.4v16.63H210.63a24.8,24.8,0,0,1-2.91,3.58Zm1.63-28.45v9.8h-4V235H196.63v6.16h-3.86v-9.8h21.39c-.56-1.28-1.23-2.52-1.85-3.64l4.15-1.17a46,46,0,0,1,2.52,4.81Zm-42,43.52c2.24-2.52,4.15-6.72,5.21-9.92l3.31,1.35c-1.18,3.3-2.92,7.5-5.16,10.19Zm14.17-9.47a33.32,33.32,0,0,1,2,9.69l-3.42.5a33.08,33.08,0,0,0-1.85-9.8Zm6.78-.45a29.44,29.44,0,0,1,3.81,8.46l-3.2,1a31.3,31.3,0,0,0-3.64-8.63Zm8.73,7.06a25.62,25.62,0,0,0-4.7-6.33l2.74-1.29a23.58,23.58,0,0,1,4.88,6.11Z"/><path class="cls-3" d="M268.93,242.17h-16v-3.36h16Zm4.42,28.9a76.26,76.26,0,0,1-17.08,6.83,27.59,27.59,0,0,0-3.08-3.14c5.71-1.17,12.43-3.19,16.41-5.37Zm-5.82-37.69H254.14v-3.25h13.39Zm-7.28,13.16h36.23V269H260.25Zm4,6.61h28.06v-3.81H264.28Zm0,6.49h28.06v-3.8H264.28Zm0,6.61h28.06v-3.92H264.28Zm13.44-32.42a27.48,27.48,0,0,1-4.2,5.6,17.83,17.83,0,0,0-3.14-2.13,23.82,23.82,0,0,0,6.44-10.64l3.76.84c-.34,1.06-.79,2.07-1.18,3.08h18.76l.67-.17,2.8,1a53,53,0,0,1-4.7,8.07l-3.31-1.18a32.25,32.25,0,0,0,2.64-4.42h-8.91v.73a10.4,10.4,0,0,1-.17,1.84c3,3.36,9.08,5.55,16.41,6.16a15.51,15.51,0,0,0-2.35,3.31c-6.38-.9-11.76-3.14-15.23-6.55-1.85,2.74-6.27,5.32-16.13,6.83a13.43,13.43,0,0,0-2.24-3.08c14.5-2,15.85-5.77,15.85-8.68v-.56Zm8.4,35.5a154.86,154.86,0,0,1,16.46,6.05l-3.64,2.41a134.7,134.7,0,0,0-15.68-6.22Z"/><path class="cls-3" d="M322.3,253.59c-1.18,6.22-3.53,14.06-6.44,18.09a26.28,26.28,0,0,0-2.13-4.59c2.29-3.25,4.59-9.46,5.54-14.45Zm5-4.19V278h-3.86V249.4h-9v-3.92h9V226.83h3.86v18.65h9.18v3.92Zm-9.35-5.88a54.94,54.94,0,0,0-3.08-12.38l3-.73a51.18,51.18,0,0,1,3.31,12.26Zm11.93,9.18c1.06,1.62,5.09,9.24,5.93,11.14l-3,3.08c-1-3.08-4.08-10.19-5.26-12.6Zm6.55-21.62a115.5,115.5,0,0,1-4.59,12.55l-2.75-.9a92.56,92.56,0,0,0,3.75-12.54Zm21.84,31.08V277.9h-3.92v-15L337,266l-.67-3.87,18-3.19V226.83h3.92v31.41l6.61-1.17.61,3.81Zm-11.31-7.84a42.27,42.27,0,0,0-9.3-6.72l2-2.91c3.3,1.74,7.45,4.26,9.41,6.27Zm2.35-13.55a46.09,46.09,0,0,0-8.79-7.22l2.12-2.8a43.27,43.27,0,0,1,8.8,6.83Z"/></svg>