<svg id="Layer_1" data-name="Layer 1" xmlns="http://www.w3.org/2000/svg" viewBox="0 0 500 500"><defs><style>.cls-1{opacity:0.5;}.cls-2{fill:#c9ff00;}.cls-3{fill:#004743;}</style></defs><g class="cls-1"><path class="cls-2" d="M247.62,382.1q-23.68,0-42.88-8.32a86.29,86.29,0,0,1-32-23.36,77.39,77.39,0,0,1-17-34.88l39-17.6a51,51,0,0,0,7.52,24.64,46.24,46.24,0,0,0,18.32,16.72q11.6,6,26.8,6,21.6,0,34.48-11.92t12.88-31.28a49.83,49.83,0,0,0-6.24-25,46.7,46.7,0,0,0-17-17.44,45.4,45.4,0,0,0-23.68-6.4,35.08,35.08,0,0,0-11,1.6V226.26h11a40.67,40.67,0,0,0,21.84-6.08,46.12,46.12,0,0,0,15.68-15.92,40.84,40.84,0,0,0,5.84-21.2,38.63,38.63,0,0,0-5.68-20.72,41.25,41.25,0,0,0-15.36-14.56,43.37,43.37,0,0,0-21.36-5.36,44.77,44.77,0,0,0-22,5.52,46.74,46.74,0,0,0-16.4,15A45.74,45.74,0,0,0,203,184.66l-33.92-14.88a71,71,0,0,1,15-32.16,78.51,78.51,0,0,1,28.4-21.68,88.21,88.21,0,0,1,37.12-7.76q23,0,41.2,9.76a75.31,75.31,0,0,1,28.64,26.4q10.49,16.65,10.48,37.92a65,65,0,0,1-3.92,22.64A61.9,61.9,0,0,1,314.74,224a61.11,61.11,0,0,1-17.2,13.92,65.5,65.5,0,0,1,20.72,14.4A64.64,64.64,0,0,1,332.18,274a74.88,74.88,0,0,1,4.88,27.6q0,23.2-11.12,41.36t-31.28,28.64Q274.5,382.11,247.62,382.1Z"/></g><path class="cls-3" d="M31.66,205.68a50.54,50.54,0,0,0-8.85-4.26l2.12-2.85a46,46,0,0,1,8.85,3.92ZM73.49,229H50.36v11h-4.2V229H23.54v-3.81H46.16v-4h4.2v4H73.49Zm-49.11-9.91A140.84,140.84,0,0,0,35.3,207.7l2.24,2.74c-3.14,3.92-6.89,8.29-10.25,11.87Zm11.53-22.57A52,52,0,0,0,27,192l2.07-2.86a43.79,43.79,0,0,1,9,4.26Zm4.59,5.77a35.13,35.13,0,0,1-3.25,3.3A28.22,28.22,0,0,0,33.9,203a39.8,39.8,0,0,0,11-14.5l3.92,1.17c-.84,1.74-1.79,3.48-2.8,5.16h9.07a45.29,45.29,0,0,0-2.24-4.65l4-1.12a44.67,44.67,0,0,1,2.86,5.77H71v3.24H58.59v4.15H69.17V205H58.59v4.14H69.34V212H58.59v4.31H71.86v3.42H44.54v2.4h-4Zm14.17-4.26H44.54v4.15H54.67Zm0,6.95H44.54v4.14H54.67Zm0,7H44.54v4.31H54.67Z"/><path class="cls-3" d="M94.82,189.89a121.4,121.4,0,0,1-4.31,11.48v38.47h-4V209.21a60.71,60.71,0,0,1-4.42,6.55,34,34,0,0,0-2.24-4.26c4.59-5.6,8.68-14.11,11.2-22.73Zm11.88,17.75a27.51,27.51,0,0,1-3.25,4.37H128V235.7c0,1.84-.34,2.74-1.63,3.41s-3.08.62-5.65.62a14.93,14.93,0,0,0-1.18-3.36c1.68,0,3.25,0,3.81,0s.67-.17.67-.73V231.5h-8.74v7.11h-3.8V231.5h-9.64a20.49,20.49,0,0,1-3.69,8.62,18.6,18.6,0,0,0-3.31-2.52c3.36-4.37,3.7-10.25,3.7-14.9v-6a51,51,0,0,1-4.82,3.42,25.25,25.25,0,0,0-2.46-3.31,33.65,33.65,0,0,0,11-9.18H94.15v-3.86h10v-5.44H95.72v-3.8h8.45v-5.49h4v5.49h9.35v-5.49h4v5.49h7.55v3.8h-7.55v5.44h9v3.86Zm4.76,20.66v-4.87h-8.91c0,1.51-.11,3.19-.28,4.87Zm-8.91-8.06h8.91v-4.7h-8.91Zm5.6-16.46h9.35v-5.44h-9.35ZM124,215.54h-8.74v4.7H124Zm0,12.76v-4.87h-8.74v4.87Z"/><path class="cls-3" d="M151.27,209.6c2,2,7.11,8,8.29,9.46L157,222.48a89.54,89.54,0,0,0-5.71-8.12v25.48h-3.92V213.07c-2.18,6.44-5.09,12.66-8.12,16.47a23.37,23.37,0,0,0-2.18-3.81c3.86-4.65,7.84-13.33,9.8-21.06h-8.57v-3.92h9.07v-12h3.92v12h8v3.92h-8Zm35.51-17.53v47.27h-4.09v-3.2h-17v3.36h-4V192.07ZM165.72,196v9.35h17V196Zm0,22.79h17v-9.63h-17Zm17,13.5v-9.69h-17v9.69Z"/><path class="cls-3" d="M217.07,217.22a46.21,46.21,0,0,1,3,6.1l-2,.78h.56v5c0,4.2-1,8-7.95,10.47a11,11,0,0,0-2-2.47c3.58-1.11,5.38-2.63,6.22-4.31h-7.45v-7.84h2.85v5.21h5.27a8.4,8.4,0,0,0,.05-1.12V224.1h2.13c-.16-.44-.45-1.06-.67-1.73-8.85.84-10.19,1.12-11,1.4a13.2,13.2,0,0,0-.84-2.75,6.45,6.45,0,0,0,3-1.56,28.93,28.93,0,0,0,3.36-2.92c-3.75.28-4.7.45-5.21.68a21.73,21.73,0,0,0-1-2.86,3.54,3.54,0,0,0,1.85-1,27,27,0,0,0,4-5.1h-9.64V240h-4V191.18H218v17.07H212.2l1.9,1a29.72,29.72,0,0,1-4.36,5.1l4.14-.17a30.1,30.1,0,0,0,2.46-2.91l2.47,1.62a67.06,67.06,0,0,1-8.46,7.73l5.66-.45c-.4-.78-.79-1.56-1.18-2.24Zm-15.46-23v4.2H214.1v-4.2Zm0,11H214.1v-4H201.61Zm42.28,29.52c0,2.29-.44,3.58-2,4.25s-3.8.84-7.27.84a18.89,18.89,0,0,0-1.29-4.14c2.46.11,4.81.11,5.54.06s1-.28,1-1V208.25H227.32l2.07,1.07a39.88,39.88,0,0,1-4.37,5.1l4.15-.23c.89-.95,1.68-1.9,2.46-2.91l2.41,1.57a57.27,57.27,0,0,1-8.46,7.78l5.6-.45c-.39-.78-.78-1.56-1.17-2.24l2.12-.72a49.28,49.28,0,0,1,3.25,6l-2.24,1a17.83,17.83,0,0,0-.89-1.9c-8.8.89-10.2,1.06-10.92,1.45a28,28,0,0,0-.84-2.8,6.61,6.61,0,0,0,3-1.51c.62-.45,1.85-1.57,3.42-3-3.86.28-4.76.45-5.26.73a17.86,17.86,0,0,0-1-2.85,3.33,3.33,0,0,0,1.85-1,28.11,28.11,0,0,0,4-5.16H223V191.18h20.88Zm-13.15-.17v-1.74h-5.38v6.33h-3.14v-15h3.14v6.05h5.38V225h3v9.52ZM227,194.2v4.2h12.88v-4.2Zm12.88,11v-4H227v4Z"/><path class="cls-3" d="M291.38,219.06a31,31,0,0,0,12.6,8.63,16.05,16.05,0,0,0-2.74,3.19A34.26,34.26,0,0,1,287,219.06H269.49a38.35,38.35,0,0,1-14.62,12.55,14.29,14.29,0,0,0-2.69-3.19,32.5,32.5,0,0,0,12.66-9.36h-12.1v-3.52h11.09V197.67h-8.51V194.2h8.51v-5.38h4.09v5.38h20.33v-5.38h4.2v5.38h8.4v3.47h-8.4v17.87h10.8v3.52ZM280,234.86h19.32v3.52H257.06v-3.52h18.76V229H264.39v-3.42h11.43v-4.7H280v4.7h11.7V229H280Zm-12-37.19v3.75h20.33v-3.75Zm0,10.75h20.33v-3.86H267.92Zm0,7.12h20.33v-4H267.92Z"/><path class="cls-3" d="M342.4,204.67c4,9.47,11.09,18.31,18.82,22.68a17.12,17.12,0,0,0-3.2,3.53c-8.28-5.21-15.51-15.29-19.71-26.21h-.78v20.67h13v4.14h-13V239.9h-4.31V229.48h-13v-4.14h13V204.67h-.9c-4.31,10.92-11.54,20.89-19.6,26.38a18.62,18.62,0,0,0-3-3.31c7.39-4.53,14.28-13.6,18.37-23.07H311.21v-4.14h22V188.82h4.31v11.71H359.7v4.14Z"/><path class="cls-3" d="M409.21,202.71a59.12,59.12,0,0,1-13.11,21.67,54.92,54.92,0,0,0,22.63,11.37,18.9,18.9,0,0,0-2.86,3.87,56.68,56.68,0,0,1-23-12.27c-6.27,5.49-14,9.52-23.29,12.49A23.4,23.4,0,0,0,367,236c9.24-2.64,16.74-6.44,22.85-11.6a63,63,0,0,1-13.44-21.67h-8.63v-4.09H418v4.09Zm-28.45,0A56.47,56.47,0,0,0,393,221.47a51.41,51.41,0,0,0,11.53-18.76Zm11.87-4.2a43.54,43.54,0,0,0-4.14-8.79l4.31-1.23a46,46,0,0,1,4.37,8.57Z"/><path class="cls-3" d="M441.24,190.22a99.19,99.19,0,0,1-5.54,12.1v37.52h-4V208.76a63.5,63.5,0,0,1-5.15,6.55,23.52,23.52,0,0,0-2.35-4.09c5.2-5.43,10.13-13.77,13.1-22.23Zm34.05,30.41H460.11V240H456V220.63H440v-4.09h16V204.28h-8.79a42.69,42.69,0,0,1-4,8.51,24.35,24.35,0,0,0-3.58-2.13c3.3-4.59,5.6-11.87,6.89-19.09l3.92.84c-.51,2.63-1.12,5.26-1.85,7.78H456V189.5h4.14v10.69h12.77v4.09H460.11v12.26h15.18Z"/><path class="cls-3" d="M100.06,284.42a41.22,41.22,0,0,1-12.32,20.95A43.86,43.86,0,0,0,102.86,312,18.26,18.26,0,0,0,100,316a43.13,43.13,0,0,1-15.73-7.78,52.42,52.42,0,0,1-17.75,8.17,15,15,0,0,0-2.35-3.8A47.45,47.45,0,0,0,81,305.25a47,47,0,0,1-11.08-18H67.8c-1.12,9.07-4.36,19.1-13.44,27.66a16.32,16.32,0,0,0-3-3.52c11.87-11,12.83-25,12.83-34.89v-5H54.36V267.4H88.69c-1.12,5.15-2.57,11.48-3.81,16H96.36l.79-.22Zm-31.7-7.89c0,2.13,0,4.42-.22,6.83H80.41c1-3.47,2.12-7.84,3-11.87H68.36Zm5.55,10.75a39,39,0,0,0,10.42,15.34,35,35,0,0,0,10.24-15.34Z"/><path class="cls-3" d="M147.33,291.2a33.56,33.56,0,0,1-6.56,12.32A121.75,121.75,0,0,1,158,312.25l-3.13,3.65a114.34,114.34,0,0,0-17.36-9.13c-5.66,4.76-13.5,7.5-24,9.29a17.72,17.72,0,0,0-2.63-4.14c9.63-1.23,16.86-3.36,22.06-7.11-5.2-2.19-10.64-4.15-15.51-5.71,1.63-2.19,3.42-4.93,5.21-7.9H110.48v-4h14.33a84.7,84.7,0,0,0,4.65-9.74l4.65.78a84.83,84.83,0,0,1-4.2,9h13.61c.39-1.73.73-3.58,1-5.54l4.88.45c-.28,1.79-.62,3.53-1,5.09h10.25v4ZM116,282.46h-4.14v-11.2h20.88c-.78-1.79-1.84-4-2.79-5.71l4.42-1.12c1.23,2.13,2.63,4.87,3.53,6.83h19.2v11.2h-4.31v-7.33H116Zm11.71,8.74c-1.29,2.18-2.53,4.2-3.76,6,4,1.29,8.29,2.91,12.49,4.54a28.5,28.5,0,0,0,6-10.53Z"/><path class="cls-3" d="M177.29,294.22v16.86c0,2.24-.51,3.42-1.91,4.09s-3.47.78-6.94.73a17.11,17.11,0,0,0-1.23-3.81c2.4.05,4.59.05,5.26,0s.95-.17.95-1V295.46l-6.66,2.18-1.07-4c2.13-.56,4.82-1.4,7.73-2.3V279.83h-7V276h7v-11.2h3.87V276h6v3.81h-6v10.31c1.84-.56,3.69-1.18,5.54-1.8l.56,3.87Zm16-29.45h3.69v23.46c0,11.15-1.23,20.94-11.37,27.72a19.43,19.43,0,0,0-2.91-2.8,21.29,21.29,0,0,0,9.3-12.43c-3.14,1.18-6.28,2.3-9,3.3l-1.62-3.64c3.08-.78,7.17-2.07,11.42-3.47a59.12,59.12,0,0,0,.51-7.22h-8.8v-3.75h8.8V278.1h-9.19v-3.81h9.19Zm24.19,37.07h-10.7v14h-4V264.77h4v9.52h9.75v3.81h-9.75v7.84h9.18v3.75h-9.18V298h10.7Z"/><path class="cls-3" d="M274.56,303.46H261.23v8c0,2.13-.45,3.25-2.24,3.81s-4.54.62-9,.62a12.74,12.74,0,0,0-1.34-3.59c3.41.11,6.55.11,7.45.06s1.12-.28,1.12-1v-7.9H236a46.88,46.88,0,0,1,9.19,6.89l-3,2.74a48.36,48.36,0,0,0-9.24-7.27l2.74-2.36H224.1v-3.41h33.1v-3.47c-11.48.33-22.68.56-30.75.67l-.17-3.25c5.55,0,12.88-.06,20.89-.17v-3.08H230V275.58h17.13v-3.14H225.72v-3.36h21.45v-4.2h4v4.2h21.12v3.36H251.2v3.14h17.7v15.17h-6.5a45.94,45.94,0,0,1,10,5.43L270,298.54a35.44,35.44,0,0,0-3.19-2.24l-5.54.16v3.59h13.33ZM234,281.79h13.21v-3.36H234ZM247.17,288v-3.47H234V288Zm4-9.52v3.36h13.61v-3.36Zm13.61,6.05H251.2V288h13.61Zm-13.61,9.35,10.59-.17a43.37,43.37,0,0,0-4.26-1.73l1.35-1.18H251.2Z"/><path class="cls-3" d="M301.88,306.94c-4,3-11.36,5.88-17.19,7.22a15.24,15.24,0,0,0-2.52-3.14c5.77-.95,12.88-3.13,16.58-5.54Zm29.24-7.79v3.53H308.66V316h-4.09V302.68H282.45v-3.53h22.12V295H287.72v-3.19h16.85v-4H284.86v-3.36H297A23.89,23.89,0,0,0,294.1,279l3-.78H282.62v-3.47h9a44.5,44.5,0,0,0-4.48-8.12l3.52-1.24a34.25,34.25,0,0,1,4.76,8.24l-2.8,1.12h6.84v-9.92h3.92v9.92h6.66v-9.92h4v9.92h6.77l-2.24-.73a46.61,46.61,0,0,0,4.31-8.51l4.26,1.17c-1.57,2.86-3.42,5.94-4.87,8.07h8.62v3.47H316.33l3.64,1a63.87,63.87,0,0,1-3.86,5.15h12.82v3.36H308.66v4h17.53V295H308.66v4.2Zm-33-20.94a22.25,22.25,0,0,1,3,5.54l-2.3.62h15.46l-2-.62a43.68,43.68,0,0,0,3.3-5.54Zm16.63,27c5.27,1.74,12.38,4.42,16.24,6.22l-2.57,2.63c-3.7-1.8-10.81-4.65-16.13-6.61Z"/><path class="cls-3" d="M358.44,311c0,2.24-.44,3.47-1.9,4.2s-3.64.78-7.45.78a11.76,11.76,0,0,0-1.17-4c2.57,0,4.92,0,5.6,0s1.06-.28,1.06-1.07V297.14h-8.79c-.51,6.6-1.68,13.6-4.2,18.87a13.78,13.78,0,0,0-3.42-2c3.87-7.84,4.15-18.93,4.15-27.16v-20h16.12Zm-3.86-17.81v-9.41h-8.46v3.08c0,1.91-.05,4.09-.11,6.33Zm-8.46-22.46v9.19h8.46V270.7Zm42.45,15.91a47.78,47.78,0,0,1-7.67,18.87,30.24,30.24,0,0,0,9.35,7.34,14.56,14.56,0,0,0-2.69,3.19,34.26,34.26,0,0,1-9.07-7.56,32.85,32.85,0,0,1-8.45,7.17,14.17,14.17,0,0,0-2.47-3.08,30.7,30.7,0,0,0,8.57-7.12,59.47,59.47,0,0,1-7.45-15.68h-1.4V316h-3.92V267H387v10.75c0,2.13-.5,3.19-2.18,3.81s-4.59.56-8.79.56a11.61,11.61,0,0,0-1.35-3.53c3.42.06,6.33.06,7.17,0s1.12-.22,1.12-.9v-6.83H367.29v15h18.15l.73-.11Zm-16.24,3.13a48.13,48.13,0,0,0,6.11,12.55,42.47,42.47,0,0,0,5.6-12.55Z"/><path class="cls-3" d="M412.37,297a57.69,57.69,0,0,0,3-9H410v23.07c0,2.13-.45,3.25-1.85,4-1.45.56-3.64.61-7,.61a15.83,15.83,0,0,0-1.28-3.81c2.4.06,4.59.06,5.31.06s.9-.22.9-.84v-18c-2.18,5.38-5.1,10.64-8.18,13.78a21.09,21.09,0,0,0-2.18-3.86c3.47-3.31,6.94-9.3,9-15H396.3v-3.64h15a57,57,0,0,0-12.43-7.51l2.57-2.68c1.74.72,3.64,1.62,5.44,2.57a39,39,0,0,0,5.87-5.54H396.92v-3.64h18.81l.73-.17,2.69,1.68A41.93,41.93,0,0,1,410,278.6a32.67,32.67,0,0,1,4.71,3.36l-2.13,2.41h4.14l.62-.23,2.52.9c-.28.95-.56,2-.84,3a37.6,37.6,0,0,0,10-4.31,32.14,32.14,0,0,1-5.77-6.84,44.21,44.21,0,0,1-4,4,26.26,26.26,0,0,0-3.42-2.41,34.42,34.42,0,0,0,10.65-13.66l4,1.06a44.77,44.77,0,0,1-2.57,4.82h18.59v3.53h-4.31a26.1,26.1,0,0,1-6.73,9.52,37.15,37.15,0,0,0,12.16,4.87,18.29,18.29,0,0,0-2.64,3.58,40.35,40.35,0,0,1-12.71-5.93A43.73,43.73,0,0,1,420,291.93a15.64,15.64,0,0,0-1.51-2.19,48.61,48.61,0,0,1-3.3,8.74Zm32.88-1s-.06,1.12-.12,1.79c-1,10.41-2.07,14.67-3.69,16.29a5.06,5.06,0,0,1-3.48,1.46,57.66,57.66,0,0,1-6.21-.06,10.72,10.72,0,0,0-1.12-3.86c2.41.22,4.65.28,5.54.28a2.39,2.39,0,0,0,1.91-.56c1.06-1.06,1.9-4.2,2.74-11.87h-9.41c-2,7.11-5.88,12.93-14.84,16.41a13.33,13.33,0,0,0-2.46-3.2c7.73-2.8,11.25-7.5,13-13.21h-8.74V296H428c.33-1.8.56-3.64.73-5.55h4.19a54.12,54.12,0,0,1-.78,5.55Zm-19.38-21.84a24.92,24.92,0,0,0,6.33,7.22,21.2,21.2,0,0,0,5.43-7.22Z"/></svg>